<?xml version="1.0" encoding="UTF-8" standalone="no"?>
<svg
   xmlns:dc="http://purl.org/dc/elements/1.1/"
   xmlns:cc="http://creativecommons.org/ns#"
   xmlns:rdf="http://www.w3.org/1999/02/22-rdf-syntax-ns#"
   xmlns:svg="http://www.w3.org/2000/svg"
   xmlns="http://www.w3.org/2000/svg"
   xmlns:sodipodi="http://sodipodi.sourceforge.net/DTD/sodipodi-0.dtd"
   xmlns:inkscape="http://www.inkscape.org/namespaces/inkscape"
   width="819.31268pt"
   height="158.85251pt"
   viewBox="0 0 819.31268 158.85251"
   version="1.1"
   id="svg36"
   sodipodi:docname="fakebook.svg"
   inkscape:version="1.0.1 (3bc2e813f5, 2020-09-07)">
  <metadata
     id="metadata40">
    <rdf:RDF>
      <cc:Work
         rdf:about="">
        <dc:format>image/svg+xml</dc:format>
        <dc:type
           rdf:resource="http://purl.org/dc/dcmitype/StillImage" />
        <dc:title></dc:title>
      </cc:Work>
    </rdf:RDF>
  </metadata>
  <sodipodi:namedview
     pagecolor="#ffffff"
     bordercolor="#666666"
     borderopacity="1"
     objecttolerance="10"
     gridtolerance="10"
     guidetolerance="10"
     inkscape:pageopacity="0"
     inkscape:pageshadow="2"
     inkscape:window-width="1920"
     inkscape:window-height="1017"
     id="namedview38"
     showgrid="false"
     inkscape:zoom="0.53220847"
     inkscape:cx="1257.3155"
     inkscape:cy="153.42149"
     inkscape:window-x="1912"
     inkscape:window-y="-8"
     inkscape:window-maximized="1"
     inkscape:current-layer="svg36" />
  <defs
     id="defs26" />
  <path
     id="A01"
     stroke-width="0.397948"
     stroke="#000000"
     stroke-opacity="1"
     fill="#1878f3"
     fill-opacity="1"
     stroke-linecap="round"
     stroke-linejoin="round"
     d="m 64.1716,25.17274 -3.316229,0.2653 -2.652983,0.66325 -2.122387,0.92854 -1.724439,1.45914 -1.193843,1.98974 -0.795895,2.25503 -0.397947,2.91829 -0.132649,3.18358 v 15.6526 H 77.436517 L 74.916182,79.5589 H 51.835228 v 76.40592 H 21.19327 V 79.5589 H 0.5 V 54.48821 H 21.19327 V 39.3662 l 0.397948,-9.02014 1.591789,-7.8263 2.652984,-6.63246 3.979474,-5.43861 5.305968,-4.37742 3.183579,-1.72445 3.448879,-1.32648 3.979475,-1.0612 4.244774,-0.79589 4.775369,-0.53060002 5.173318,-0.13265 9.020143,0.2653 L 77.834465,1.56119 V 25.3054 Z" />
  <path
     id="A02"
     stroke-width="0.397948"
     stroke="#000000"
     stroke-opacity="1"
     fill="#1878f3"
     fill-opacity="1"
     stroke-linecap="round"
     stroke-linejoin="round"
     d="m 79.558906,101.97661 c 0,-28.38692 13.53021,-49.74343 41.651844,-49.74343 15.25465,0 24.67274,7.95894 29.18281,17.77499 V 54.48821 h 29.44812 v 101.47661 h -29.44812 v -15.3873 c -4.24477,9.81603 -13.92816,17.50969 -29.18281,17.50969 -28.121634,0 -41.651844,-21.35651 -41.651844,-49.74344 z m 30.774604,6.76511 c 0,15.25466 5.57127,25.20334 19.76474,25.20334 12.60166,0 18.96882,-9.15279 18.96882,-23.61155 v -10.21399 c 0,-14.45875 -6.36716,-23.61155 -18.96882,-23.61155 -14.19347,0 -19.76474,9.94869 -19.76474,25.07069 z" />
  <path
     id="A03"
     stroke-width="0.397948"
     stroke="#000000"
     stroke-opacity="1"
     fill="#1878f3"
     fill-opacity="1"
     stroke-linecap="round"
     stroke-linejoin="round"
     d="m 281.3183,109.13967 v -8.88749 c 0,-28.78488 16.44849,-47.7537 49.87607,-47.7537 31.57051,0 45.36602,19.10147 45.36602,47.35575 v 16.18319 h -64.60014 c 0.66325,13.92817 6.89775,20.03003 23.87685,20.03003 11.54048,0 23.7442,-2.38768 32.6317,-6.10186 l 5.57127,20.95857 c -8.09161,4.24477 -24.67276,7.42835 -39.39681,7.42835 -38.86621,0 -53.32496,-19.36678 -53.32496,-49.21284 z M 311.96025,96.0074 h 37.14177 v -2.65299 c 0,-11.00987 -4.51008,-19.89737 -17.90765,-19.89737 -13.79551,0 -19.23412,8.75484 -19.23412,22.41771 z" />
  <path
     id="A04"
     stroke-width="0.397948"
     stroke="#000000"
     stroke-opacity="1"
     fill="#1878f3"
     fill-opacity="1"
     stroke-linecap="round"
     stroke-linejoin="round"
     d="m 489.57749,108.47642 c 0,28.38692 -13.66287,49.74343 -41.78449,49.74343 -15.38731,0 -25.99924,-7.69364 -30.24402,-17.50969 v 15.38731 H 388.49882 V 3.55093 L 419.27343,0.76529998 V 68.54903 c 4.51007,-8.8875 14.3261,-16.18321 28.51957,-16.18321 28.12162,0 41.78449,21.35652 41.78449,49.74344 z m -30.77461,-7.0304 c 0,-14.32612 -5.43862,-24.93805 -20.16267,-24.93805 -12.60168,0 -19.36678,8.8875 -19.36678,23.34626 v 10.74458 c 0,14.45875 6.7651,23.4789 19.36678,23.4789 14.72405,0 20.16267,-10.74458 20.16267,-24.93804 z" />
  <path
     id="A05"
     stroke-width="0.397948"
     stroke="#000000"
     stroke-opacity="1"
     fill="#1878f3"
     fill-opacity="1"
     stroke-linecap="round"
     stroke-linejoin="round"
     d="m 499.79147,107.68053 v -5.04067 c 0,-29.18282 16.7138,-50.40668 50.53934,-50.40668 33.95818,0 50.53933,21.22386 50.53933,50.40668 v 5.04067 c 0,29.31546 -16.58115,50.40668 -50.53933,50.40668 -33.82554,0 -50.53934,-21.09122 -50.53934,-50.40668 z m 70.43671,-7.16306 c 0,-13.39757 -5.57127,-24.14214 -19.89737,-24.14214 -14.32612,0 -19.89738,10.74457 -19.89738,24.14214 v 9.28544 c 0,13.53022 5.57126,24.14215 19.89738,24.14215 14.19346,0 19.89737,-10.61193 19.89737,-24.14215 z" />
  <path
     id="A06"
     stroke-width="0.397948"
     stroke="#000000"
     stroke-opacity="1"
     fill="#1878f3"
     fill-opacity="1"
     stroke-linecap="round"
     stroke-linejoin="round"
     d="m 611.21677,107.68053 v -5.04067 c 0,-29.18282 16.7138,-50.40668 50.53934,-50.40668 33.95818,0 50.53933,21.22386 50.53933,50.40668 v 5.04067 c 0,29.31546 -16.58115,50.40668 -50.53933,50.40668 -33.82554,0 -50.53934,-21.09122 -50.53934,-50.40668 z m 70.43671,-7.16306 c 0,-13.39757 -5.57127,-24.14214 -19.89737,-24.14214 -14.19346,0 -19.76473,10.74457 -19.76473,24.14214 v 9.28544 c 0,13.53022 5.57127,24.14215 19.76473,24.14215 14.3261,0 19.89737,-10.61193 19.89737,-24.14215 z" />
  <path
     id="A07"
     stroke-width="0.397948"
     stroke="#000000"
     stroke-opacity="1"
     fill="#1878f3"
     fill-opacity="1"
     stroke-linecap="round"
     stroke-linejoin="round"
     d="m 754.61052,102.90516 30.24402,-48.41695 h 32.63169 l -31.70315,50.14139 33.02964,51.46787 h -32.6317 l -31.5705,-49.74344 v 49.74344 H 723.96856 V 3.55093 l 30.64196,-2.78563002 z" />
  <path
     id="A08"
     stroke-width="0.397948"
     stroke="#000000"
     stroke-opacity="1"
     fill="#1878f3"
     fill-opacity="1"
     stroke-linecap="round"
     stroke-linejoin="round"
     d="m 222.15677,103.3031 30.244,-48.41694 h 32.6317 l -31.70316,50.14139 33.02965,51.46787 h -32.6317 l -31.57049,-49.74344 v 49.74344 H 191.38216 V 3.94888 l 30.77461,-2.78563 z" />
</svg>
